<?xml version="1.0" encoding="UTF-8"?>
<svg width="1200pt" height="1200pt" version="1.1" viewBox="0 0 1200 1200" xmlns="http://www.w3.org/2000/svg">
 <path d="m1101.8 406.7c0-0.50391-0.035157-1.0195-0.097657-1.5234l-34.426-268.82c-0.76953-5.9883-5.8672-10.477-11.902-10.477h-862.49c-5.9883 0-11.062 4.4141-11.879 10.344l-37.43 268.82c-0.085937 0.53906-0.12109 1.1055-0.12109 1.6562 0 33.359 23.531 61.309 54.898 68.363v239.16h-44.555c-6.6367 0-12 5.375-12 12v76.633c0 6.625 5.3633 12 12 12h15.996l0.003906 259.02c0 6.625 5.3633 12 12 12h881.66c6.6367 0 12-5.375 12-12v-259.02h14.34c6.6367 0 12-5.375 12-12v-76.621c0-6.625-5.3633-12-12-12h-42.898l-0.003906-239.16c31.383-7.0664 54.902-35.016 54.902-68.375zm-70.395 46.141c-23.629 0-42.973-17.723-45.816-40.465h91.633c-2.8555 22.742-22.188 40.465-45.816 40.465zm-163.19-64.465v-238.5h92.797v238.5zm-24 0h-92.785l0.003906-238.5h92.785zm-116.79 0h-92.641v-238.5h92.641zm-116.64 0h-92.953v-238.5h92.953zm-116.95 0h-92.785v-238.5h92.785zm-116.79 0h-93.086l0.003906-238.5h93.086zm-0.57422 24c-2.8438 22.738-22.188 40.465-45.816 40.465-23.641 0-42.984-17.723-45.828-40.465zm116.79 0c-2.8438 22.738-22.188 40.465-45.816 40.465-23.629 0-42.973-17.723-45.816-40.465zm116.8 0c-2.8438 22.738-22.188 40.465-45.828 40.465-23.629 0-42.973-17.723-45.816-40.465zm116.79 0c-2.8438 22.738-22.188 40.465-45.816 40.465s-42.973-17.723-45.816-40.465zm116.8 0c-2.8438 22.738-22.188 40.465-45.816 40.465-23.629 0-42.973-17.723-45.816-40.465zm116.8 0c-2.8438 22.738-22.188 40.465-45.816 40.465-23.641 0-42.984-17.723-45.828-40.465zm114.92-24h-90.348v-238.5h59.797zm-872.04-238.5h56.641v238.5h-89.832zm-35.281 262.5h91.633c-2.8438 22.738-22.188 40.465-45.816 40.465-23.641 0-42.984-17.723-45.816-40.465zm883.42 649.5h-857.66v-247.02h857.66zm26.34-271.02h-912v-52.621h912zm-593.58-126.48c29.293 0 53.23 21.863 56.617 49.859h-113.21c3.3711-27.996 27.312-49.859 56.59-49.859zm138.57 0c29.281 0 53.219 21.863 56.605 49.859h-113.2c3.3789-27.996 27.32-49.859 56.59-49.859zm138.57 0c29.281 0 53.219 21.863 56.605 49.859h-113.21c3.3711-27.996 27.324-49.859 56.602-49.859zm138.58 0c29.281 0 53.219 21.863 56.605 49.859h-113.21c3.3672-27.996 27.32-49.859 56.602-49.859zm-69.289 14.617c-11.617-18.77-30.695-32.531-53.184-37.02 4.8945-26.293 28.188-46.297 56.23-46.297 27.73 0 50.902 19.535 56.16 45.383-25.078 3.0977-46.582 17.523-59.207 37.934zm-138.58 0c-11.617-18.77-30.695-32.531-53.184-37.02 4.8945-26.293 28.188-46.297 56.23-46.297 27.73 0 50.902 19.535 56.16 45.383-25.066 3.0977-46.57 17.523-59.207 37.934zm-138.56 0c-11.473-18.539-30.227-32.172-52.367-36.84 4.8242-26.375 28.152-46.488 56.27-46.488 27.684 0 50.832 19.477 56.125 45.266-25.418 2.8789-47.258 17.41-60.027 38.062zm-138.57 0c-11.473-18.539-30.227-32.172-52.367-36.84 4.8242-26.375 28.152-46.488 56.27-46.488 27.684 0 50.832 19.477 56.125 45.266-25.422 2.8789-47.262 17.41-60.027 38.062zm-69.289-14.617c29.293 0 53.23 21.863 56.617 49.859h-113.21c3.3711-27.996 27.309-49.859 56.59-49.859zm635.23 49.859c-3.0352-36.551-30.793-66.203-66.66-72.539-5.207-39.445-39.289-70.02-80.52-70.02-29.316 0-54.984 15.504-69.289 38.617-14.305-23.113-39.973-38.617-69.289-38.617-29.027 0-54.469 15.191-68.855 37.922-14.375-22.727-39.828-37.922-68.855-37.922-29.316 0-54.996 15.504-69.289 38.617-14.305-23.113-39.961-38.617-69.289-38.617-40.895 0-74.734 30.086-80.375 69.059-39.254 3.4219-70.523 34.559-73.766 73.5h-42.332v-237.96c20.734-2.5078 38.734-13.98 49.883-30.457 12.66 18.695 34.117 31.02 58.402 31.02 24.289 0 45.73-12.324 58.391-31.02 12.66 18.695 34.105 31.02 58.391 31.02 24.289 0 45.73-12.324 58.391-31.02 12.66 18.695 34.105 31.02 58.391 31.02 24.289 0 45.742-12.324 58.402-31.02 12.66 18.695 34.105 31.02 58.391 31.02 24.289 0 45.73-12.324 58.391-31.02 12.66 18.695 34.105 31.02 58.391 31.02 24.289 0 45.73-12.324 58.391-31.02 12.66 18.695 34.117 31.02 58.402 31.02 24.289 0 45.73-12.324 58.391-31.02 11.16 16.477 29.148 27.949 49.883 30.457v237.96z"/>
</svg>
